# xmcd CD database file
#
# Track frame offsets:
#	150
#	20695
#	38787
#	59839
#	80550
#	110438
#	130297
#	156204
#	173874
#	197832
#
# Disc length: 2877 seconds
#
# Revision: 0
# Processed by: cddbd v1.4PL0 Copyright (c) Steve Scherf et al.
# Submitted via: CDex 1.50beta10
#
DISCID=8c0b3b0a
DTITLE=Bel Canto  - Dorothy's Victory
DYEAR=2002
DGENRE=Heavenly Voices
TTITLE0=Foolish Ship
TTITLE1=Feels Like I'm Allready Flying
TTITLE2=You Rock My World Tonight
TTITLE3=Disappear Club 5
TTITLE4=Night Lady
TTITLE5=Dorothy's Victory
TTITLE6=Tree
TTITLE7=Happy Times Fly Fast!
TTITLE8=Im Best'n Beihs
TTITLE9=Corals, Jade and Pearls
EXTD=YEAR: 2002
EXTT0=
EXTT1=
EXTT2=
EXTT3=
EXTT4=
EXTT5=
EXTT6=
EXTT7=
EXTT8=
EXTT9=
PLAYORDER=
